# Blender v2.79 (sub 0) OBJ File: ''
# www.blender.org
mtllib Far_Land.mtl
o Far_Land_Far_Land_Cube
v 265.594971 13.641571 -0.183867
v 265.594971 58.911541 265.663757
v 265.594971 58.911583 -0.183860
v -589.382263 58.911678 -591.689453
v -589.382263 8.482793 860.750122
v -589.382263 58.911442 860.750122
v 859.537048 58.911678 -591.689453
v -589.382263 8.483029 -591.689453
v 859.537048 58.911442 860.750122
v 859.537048 8.483029 -591.689453
v 859.537048 8.482793 860.750122
v -0.467038 58.911541 265.663757
v -0.467038 58.911583 -0.183860
v 265.594971 13.641528 265.663757
v -0.467038 13.641571 -0.183867
v -0.467038 13.641528 265.663757
vt -5.268188 -6.189484
vt -60.144150 0.345599
vt -59.956451 -6.170085
vt -486.489502 18.048626
vt -459.283875 -23.244604
vt -495.841919 -23.277920
vt 677.340454 18.094917
vt -448.958374 18.013344
vt 678.088074 -23.273024
vt 642.674377 18.055494
vt 641.229919 -23.238852
vt -528.780151 17.410057
vt 4.026062 -5.758321
vt -12.684814 0.676956
vt 205.333282 -6.171950
vt -5.670517 -6.204915
vt 206.118484 0.256444
vt -8.249199 0.251012
vt -4.984871 0.322522
vt 206.793762 2.294749
vt -5.485069 2.283959
vt 205.046722 -6.167117
vt -5.984833 -8.092328
vt 206.363647 -8.224084
vt 206.091644 0.256158
vt 254.798737 -6.204288
vt 254.100815 0.288528
vt -447.606750 -23.839600
vt 209.412079 -6.167117
vn -1.0000 0.0000 0.0000
vn 0.0000 0.0000 -1.0000
vn 1.0000 0.0000 0.0000
vn 0.0000 0.0000 1.0000
vn -0.0000 1.0000 0.0000
usemtl Material.001
s 1
f 1/1/1 2/2/1 3/3/1
f 4/4/1 5/5/1 6/6/1
f 7/7/2 8/8/2 4/4/2
f 9/9/3 10/10/3 7/7/3
f 11/11/4 6/6/4 5/5/4
f 4/12/5 12/13/5 13/14/5
f 6/6/5 2/15/5 12/16/5
f 3/17/5 4/4/5 13/18/5
f 2/15/5 7/7/5 3/17/5
f 14/19/2 12/20/2 2/21/2
f 15/22/4 3/23/4 13/24/4
f 16/25/3 13/26/3 12/27/3
f 1/1/1 14/19/1 2/2/1
f 4/4/1 8/8/1 5/5/1
f 7/7/2 10/10/2 8/8/2
f 9/9/3 11/11/3 10/10/3
f 11/11/4 9/9/4 6/6/4
f 4/12/5 6/28/5 12/13/5
f 6/6/5 9/9/5 2/15/5
f 3/17/5 7/7/5 4/4/5
f 2/15/5 9/9/5 7/7/5
f 14/19/2 16/25/2 12/20/2
f 15/22/4 1/1/4 3/23/4
f 16/25/3 15/29/3 13/26/3
